<svg width="26" height="26" viewBox="0 0 26 26" fill="none" xmlns="http://www.w3.org/2000/svg">
<g id="devicon:twitter">
<path id="Vector" d="M23.3383 7.696C23.3541 7.92533 23.3541 8.15445 23.3541 8.38581C23.3541 15.4342 17.9881 23.5633 8.17659 23.5633V23.5592C5.27802 23.5633 2.43952 22.7331 0 21.1677C0.421484 21.2184 0.845 21.2438 1.26953 21.2448C3.67191 21.2468 6.0052 20.441 7.89445 18.957C6.78132 18.936 5.70259 18.5677 4.80907 17.9035C3.91556 17.2393 3.25193 16.3125 2.91098 15.2527C3.71069 15.407 4.53456 15.3751 5.31944 15.1606C2.83075 14.6579 1.04041 12.4715 1.04041 9.9322V9.86456C1.78228 10.2779 2.6126 10.5068 3.46145 10.5322C1.11719 8.96573 0.395078 5.84756 1.81045 3.40986C3.14963 5.05774 4.82048 6.40549 6.71446 7.36557C8.60845 8.32565 10.6832 8.87659 12.804 8.98259C12.5926 8.07234 12.6239 7.12255 12.8947 6.22818C13.1656 5.33382 13.6665 4.52623 14.3473 3.88619C16.4958 1.86651 19.8748 1.97011 21.8942 4.11755C23.0889 3.88166 24.2345 3.44367 25.2817 2.82242C24.8835 4.05756 24.0502 5.10602 22.9369 5.77281C23.9943 5.64814 25.0269 5.36499 26 4.93289C25.2842 6.00491 24.3828 6.9406 23.3383 7.696Z" fill="#1D9BF0"/>
</g>
</svg>
