<svg width="40" height="41" viewBox="0 0 40 41" fill="none" xmlns="http://www.w3.org/2000/svg">
<g id="Icons/Filter">
<path id="&#240;&#159;&#140;&#136; Secondary" fill-rule="evenodd" clip-rule="evenodd" d="M33.9706 9.02861C35.3457 9.02861 36.4635 10.1268 36.4635 11.4779C36.4635 12.8307 35.3457 13.9289 33.9706 13.9289H23.0904C21.7134 13.9289 20.5956 12.8307 20.5956 11.4779C20.5956 10.1268 21.7134 9.02861 23.0904 9.02861H33.9706ZM5.86615 27.3283H16.7463C18.1233 27.3283 19.2411 28.4265 19.2411 29.7794C19.2411 31.1304 18.1233 32.2304 16.7463 32.2304H5.86615C4.48913 32.2304 3.37134 31.1304 3.37134 29.7794C3.37134 28.4265 4.48913 27.3283 5.86615 27.3283Z" fill="#0D6EFD"/>
<path id="&#240;&#159;&#140;&#136; Primary" fill-rule="evenodd" clip-rule="evenodd" d="M9.06094 17.07C12.2047 17.07 14.751 14.5665 14.751 11.4779C14.751 8.39101 12.2047 5.88757 9.06094 5.88757C5.91898 5.88757 3.37085 8.39101 3.37085 11.4779C3.37085 14.5665 5.91898 17.07 9.06094 17.07ZM30.7739 35.3034C33.9177 35.3034 36.464 32.7999 36.464 29.7131C36.464 26.6244 33.9177 24.121 30.7739 24.121C27.632 24.121 25.0838 26.6244 25.0838 29.7131C25.0838 32.7999 27.632 35.3034 30.7739 35.3034Z" fill="#0D6EFD"/>
</g>
</svg>
