<svg width="41" height="41" viewBox="0 0 41 41" fill="none" xmlns="http://www.w3.org/2000/svg">
<g id="Icons/Home">
<path id="Shape" d="M21.8212 6.24736C21.1225 5.89799 20.3 5.89799 19.6013 6.24736L10.5008 10.7976C9.65993 11.218 9.12878 12.0775 9.12878 13.0176V30.7073C9.12878 33.4488 11.3512 35.6712 14.0927 35.6712H27.3298C30.0713 35.6712 32.2937 33.4488 32.2937 30.7073V13.0175C32.2937 12.0775 31.7626 11.218 30.9217 10.7976L21.8212 6.24736Z" fill="#F0F0F0"/>
<path id="Shape_2" fill-rule="evenodd" clip-rule="evenodd" d="M24.0199 35.6711H17.4014V29.0525C17.4014 27.2249 18.883 25.7432 20.7106 25.7432C22.5383 25.7432 24.0199 27.2249 24.0199 29.0525V35.6711Z" fill="#797979"/>
<path id="Shape_3" fill-rule="evenodd" clip-rule="evenodd" d="M5.99426 14.9007C6.40294 15.7181 7.39684 16.0494 8.21419 15.6407L20.7113 9.39215L33.2085 15.6407C34.0258 16.0494 35.0197 15.7181 35.4284 14.9007C35.8371 14.0834 35.5058 13.0895 34.6884 12.6808L21.4513 6.06225C20.9855 5.82934 20.4372 5.82934 19.9714 6.06225L6.73424 12.6808C5.91688 13.0895 5.58558 14.0834 5.99426 14.9007Z" fill="#797979"/>
</g>
</svg>
