<svg width="25" height="17" viewBox="0 0 25 17" fill="none" xmlns="http://www.w3.org/2000/svg">
<g id="logos:google-gmail" clip-path="url(#clip0_1216_1158)">
<path id="Vector" d="M5.68184 16.9163V8.20404L2.68623 5.73217L0 4.36046V15.3788C0 16.2295 0.76416 16.9163 1.70459 16.9163H5.68184Z" fill="#4285F4"/>
<path id="Vector_2" d="M19.3181 16.9163H23.2954C24.2386 16.9163 25 16.227 25 15.3788V4.36055L21.9574 5.93168L19.3181 8.20405V16.9163Z" fill="#34A853"/>
<path id="Vector_3" d="M5.68179 8.20405L5.27417 4.79991L5.68179 1.54181L12.5 6.15418L19.3181 1.54181L19.7741 4.62401L19.3181 8.20405L12.5 12.8164L5.68179 8.20405Z" fill="#EA4335"/>
<path id="Vector_4" d="M19.3181 1.54181V8.20404L25 4.36046V2.31051C25 0.409237 22.5937 -0.674624 20.9091 0.465609L19.3181 1.54181Z" fill="#FBBC04"/>
<path id="Vector_5" d="M0 4.36047L2.61318 6.12829L5.68184 8.20405V1.54182L4.09082 0.465619C2.40332 -0.674702 0 0.409246 0 2.31043V4.36038V4.36047Z" fill="#C5221F"/>
</g>
<defs>
<clipPath id="clip0_1216_1158">
<rect width="25" height="17" fill="white"/>
</clipPath>
</defs>
</svg>
